<svg width="12" height="12" viewBox="0 0 12 12" fill="none" xmlns="http://www.w3.org/2000/svg">
<path d="M1.97401 6.659C1.92925 6.78121 1.8386 6.88115 1.72132 6.93758C1.60404 6.99401 1.46938 7.00249 1.34595 6.96122C1.22252 6.91995 1.12005 6.83217 1.06031 6.71654C1.00056 6.60092 0.988262 6.46655 1.02601 6.342C1.04433 6.28713 1.06501 6.23208 1.08801 6.179C1.12801 6.084 1.18701 5.953 1.26801 5.798C1.43301 5.488 1.69001 5.075 2.06901 4.662C2.83401 3.827 4.08701 3 6.00001 3C7.91301 3 9.16601 3.827 9.93101 4.662C10.339 5.11021 10.6702 5.62279 10.911 6.179L10.957 6.292C10.96 6.3 10.97 6.352 10.98 6.402L11 6.5C11 6.5 11.084 6.833 10.658 6.974C10.5326 7.0159 10.3956 7.00638 10.2772 6.94753C10.1587 6.88867 10.0684 6.78529 10.026 6.66V6.657L10.02 6.641L9.98901 6.563C9.79257 6.11375 9.52404 5.69963 9.19401 5.337C8.58401 4.674 7.58701 4 6.00001 4C4.41301 4 3.41601 4.673 2.80601 5.338C2.47608 5.70032 2.20755 6.1141 2.01101 6.563L1.98101 6.641L1.97401 6.659ZM4.00001 7C4.00001 6.46957 4.21073 5.96086 4.5858 5.58579C4.96087 5.21071 5.46958 5 6.00001 5C6.53045 5 7.03915 5.21071 7.41423 5.58579C7.7893 5.96086 8.00001 6.46957 8.00001 7C8.00001 7.53043 7.7893 8.03914 7.41423 8.41421C7.03915 8.78929 6.53045 9 6.00001 9C5.46958 9 4.96087 8.78929 4.5858 8.41421C4.21073 8.03914 4.00001 7.53043 4.00001 7Z" fill="#9C9C9C"/>
</svg>
